<?xml version="1.0" encoding="UTF-8"?>
<svg id="Layer_2" data-name="Layer 2" xmlns="http://www.w3.org/2000/svg" xmlns:xlink="http://www.w3.org/1999/xlink" viewBox="0 0 300 300">
  <defs>
    <linearGradient id="linear-gradient" x1="1073.84" y1="41.14" x2="1045.77" y2="69.52" gradientTransform="translate(-1051.32)" gradientUnits="userSpaceOnUse">
      <stop offset=".14" stop-color="#e6e6e6"/>
      <stop offset="1" stop-color="#666"/>
    </linearGradient>
    <linearGradient id="linear-gradient-2" x1="1108.88" y1="19.37" x2="1072.82" y2="55.82" xlink:href="#linear-gradient"/>
    <linearGradient id="linear-gradient-3" x1="1129.6" y1="48.45" x2="1105.33" y2="72.99" xlink:href="#linear-gradient"/>
  </defs>
  <g id="steam">
    <path id="steam3" d="M6.61,81.43c-.62-.14-1.78.15-2.23.69-1.34-2.16-3.69-4.8-4.22-7.41-1.81-8.9,12.36-22.18,16.88-28.8,1.68-4.11,1.52-8.99-.25-13.01l-3.29-6.85c4.97,6.77,9.78,13.38,8.87,22.77-.84,8.77-8.92,15.72-13.4,22.29-2.29,3.35-3.65,5.88-2.36,10.31Z" fill="url(#linear-gradient)"/>
    <path id="steam2" d="M37.12,71.12c-.8-.18-2.28.19-2.87.89-1.72-2.78-4.74-6.17-5.42-9.51-2.32-11.43,15.87-28.48,21.68-36.98,2.15-5.28,1.95-11.55-.32-16.71L45.97,0c6.38,8.7,12.56,17.19,11.4,29.25-1.08,11.27-11.46,20.19-17.21,28.62-2.94,4.3-4.69,7.55-3.03,13.25Z" fill="url(#linear-gradient-2)"/>
    <path id="steam1" d="M64.52,83.29c-.54-.12-1.54.13-1.93.6-1.15-1.87-3.19-4.15-3.65-6.4-1.56-7.7,10.68-19.17,14.59-24.89,1.45-3.55,1.31-7.77-.21-11.25l-2.84-5.92c4.3,5.85,8.45,11.57,7.67,19.69-.73,7.58-7.71,13.59-11.59,19.27-1.98,2.9-3.16,5.08-2.04,8.92Z" fill="url(#linear-gradient-3)"/>
  </g>
</svg>